# xmcd CD database file
#
# Track frame offsets:
#	150
#	11857
#	25142
#	40187
#	52188
#	64976
#	80495
#	88757
#	101454
#	113249
#	126045
#	139561
#	149235
#	161359
#	171242
#	186433
#
# Disc length: 2656 seconds
#
# Revision: 1
# Processed by: cddbd v1.5.2PL0 Copyright (c) Steve Scherf et al.
# Submitted via: CDex 1.70beta1
#
DISCID=e60a5e10
DTITLE=Various Artist - Country Postcards
DYEAR=2006
DGENRE=Country
TTITLE0=Bob Wills_New San Antonio Rose
TTITLE1=Frankie Laine_Granada
TTITLE2=Johnny Lee_Frisco(I'm Going Back Home)
TTITLE3=Bob Wills and His Texas Playboys_Take Me Back To Tulsa
TTITLE4=Billie Jo Spears_Dallas
TTITLE5=Jack Guthrie_Oklahoma Hills
TTITLE6=Kenny Rogers_Tulsa Turnaround
TTITLE7=Jerry Wallace_Primrose Lane
TTITLE8=Karl Denver_California Zephyr
TTITLE9=Charlie Pride_Louisiana Man
TTITLE10=Roy Drusky_Luckenbach Texas
TTITLE11=Roy Rogers_San Fenrnando Valley
TTITLE12=Roy Acuff_Night Train To Memphis
TTITLE13=Tennessee Ernie Ford_Kentucky Waltz
TTITLE14=Gene Autry_It Happened In Monterey
TTITLE15=Karl Denver_Mexicali Rose
EXTD=YEAR: 2006
EXTT0=
EXTT1=
EXTT2=
EXTT3=
EXTT4=
EXTT5=
EXTT6=
EXTT7=
EXTT8=
EXTT9=
EXTT10=
EXTT11=
EXTT12=
EXTT13=
EXTT14=
EXTT15=
PLAYORDER=
